:SAMPLES-PER-SECOND 30
:FULLY-SPECIFIED
:DEGREES
403
root  -4.30796 29.7474 34.4502 111.86 5.9284 99.5901
Spine  1.42328 5.86888 0.0958626
Spine1  -1.15883 -16.2042 14.42
Neck  3.97569e-016 0 -2.38542e-015
Head  -10.0338 -1.90872 11.8026
R_Clavicle  0.776326 0.0367087 3.95235
R_UpperArm  27.34 32.7005 10.7203
R_Forearm  23.8031 19.5694 -17.2028
R_Hand  1.86205 2.62112 15.6835
L_Clavicle  -0.331858 12.3735 -0.474923
L_UpperArm  -23.7108 14.3639 33.6941
L_Forearm  -1.76186 20.0088 24.8613
L_Hand  0.012845 1.03772 0.321335
L_Thigh  -8.5815 -22.5553 9.2808
L_Calf  3.13486 -1.50967 11.335
L_Foot  5.52428 27.8969 -2.71139
L_Toe0  0.40392 0.0418638 -6.22579
R_Thigh  15.9026 -3.18871 -6.38268
R_Calf  1.51891 -7.46569 -23.9695
R_Foot  1.46872 6.40852 7.11832
R_Toe0  -1.86671 -0.271442 -17.3681
404
root  -4.44529 30.2912 35.3222 112.818 5.55567 99.2993
Spine  1.72571 5.75879 0.0404403
Spine1  -0.552911 -15.8689 12.4466
Neck  3.97569e-016 0 -2.38542e-015
Head  -10.4507 -1.73724 15.4189
R_Clavicle  0.494812 -0.289243 2.52607
R_UpperArm  19.792 30.6457 4.30249
R_Forearm  18.0845 16.5064 -14.2793
R_Hand  2.80439 4.80331 17.5595
L_Clavicle  -0.291718 11.1469 -0.479309
L_UpperArm  -22.7458 14.8717 32.5609
L_Forearm  4.41639 16.5954 20.1237
L_Hand  -0.131555 -0.071062 -2.79645
L_Thigh  -9.27684 -21.3464 9.05548
L_Calf  4.45785 -1.3047 9.7653
L_Foot  3.9924 26.478 -5.67766
L_Toe0  1.28265 -0.00900914 -5.44871
R_Thigh  15.4441 -2.17018 -7.70639
R_Calf  3.10865 -5.42751 -17.1455
R_Foot  0.999775 4.86204 6.06269
R_Toe0  -1.19933 -0.262867 -17.1503
405
root  -4.64692 30.7826 36.1926 113.683 5.28193 98.0306
Spine  2.68607 6.03854 -0.0478447
Spine1  0.875434 -14.7796 8.81134
Neck  3.97569e-016 0 -2.38542e-015
Head  -11.7046 -1.50532 20.1317
R_Clavicle  0.157784 -0.029417 0.797427
R_UpperArm  13.1979 28.2482 -0.411784
R_Forearm  14.3819 9.30342 -7.84911
R_Hand  3.25185 7.21808 14.6457
L_Clavicle  -0.226359 9.55819 -0.706949
L_UpperArm  -21.4836 16.11 31.0456
L_Forearm  6.78784 14.0055 16.7328
L_Hand  -0.159217 0.30184 -3.02519
L_Thigh  -9.99354 -18.996 11.6514
L_Calf  6.68011 -0.667315 4.95788
L_Foot  0.0743123 20.5547 -13.3218
L_Toe0  6.07548 -0.503149 -1.18719
R_Thigh  14.3726 -0.176344 -11.1815
R_Calf  6.32844 -2.55768 -7.97174
R_Foot  0.10804 1.87932 4.34466
R_Toe0  2.64204 -0.538797 -13.558
406
root  -4.85287 30.9458 37.1349 114.468 5.2708 95.9017
Spine  4.07958 6.84421 -1.14813
Spine1  2.61535 -12.7454 5.91804
Neck  3.97569e-016 0 -2.38542e-015
Head  -13.273 -1.64349 23.6816
R_Clavicle  -0.0451302 1.42464 -0.0950567
R_UpperArm  7.14747 26.9305 -4.70726
R_Forearm  13.5095 -0.177662 0.120614
R_Hand  2.97976 9.85031 7.63522
L_Clavicle  -0.152331 8.33022 -1.16837
L_UpperArm  -19.943 16.7597 29.4058
L_Forearm  4.30474 11.069 13.0467
L_Hand  -0.0769309 1.36036 -1.18945
L_Thigh  -9.81602 -15.6632 16.1352
L_Calf  7.12074 0.192093 -1.51926
L_Foot  -2.80907 12.6006 -19.3395
L_Toe0  8.77117 -1.08581 1.26566
R_Thigh  12.8284 2.40014 -16.4222
R_Calf  6.21592 0.407407 1.27972
R_Foot  -0.0141603 1.95526 6.09291
R_Toe0  4.92708 -1.17727 -4.54305
407
root  -4.98112 30.7321 38.101 114.577 5.54624 93.6324
Spine  5.65751 8.55931 -2.63428
Spine1  4.21392 -11.558 4.022
Neck  3.97569e-016 0 -2.38542e-015
Head  -14.953 -1.92516 25.4887
R_Clavicle  -0.0456542 3.02063 0.0428773
R_UpperArm  1.49183 26.259 -9.47725
R_Forearm  13.5289 -9.57084 8.02734
R_Hand  2.37764 11.8784 1.16216
L_Clavicle  -0.0831375 7.64422 -1.73673
L_UpperArm  -18.1167 16.1938 28.3079
L_Forearm  -0.284063 7.14517 8.31058
L_Hand  0.0146949 1.92654 0.30428
L_Thigh  -9.52736 -11.7936 20.5711
L_Calf  3.89771 0.842932 -6.43391
L_Foot  -2.67249 8.26236 -17.6359
L_Toe0  4.241 -0.252384 -2.75251
R_Thigh  11.1187 4.85424 -22.3922
R_Calf  2.12033 2.98403 9.3468
R_Foot  0.435311 4.46918 11.4176
R_Toe0  0.449785 -0.229439 -1.20308
408
root  -5.05639 30.4006 38.9796 113.993 5.82411 91.4946
Spine  7.24881 11.451 -3.56741
Spine1  5.52101 -12.3029 2.49097
Neck  3.97569e-016 0 -2.38542e-015
Head  -16.9514 -2.11249 25.7287
R_Clavicle  0.0732591 3.31344 0.591208
R_UpperArm  -3.32733 25.934 -13.6429
R_Forearm  13.3576 -17.4767 15.2849
R_Hand  1.83623 12.4456 -2.62457
L_Clavicle  -0.0954819 7.98119 -1.78161
L_UpperArm  -15.8748 13.6112 27.0836
L_Forearm  -4.03368 2.99899 3.4529
L_Hand  0.00619893 2.03181 0.188485
L_Thigh  -8.74384 -8.11333 23.9923
L_Calf  0.107534 0.865401 -6.6909
L_Foot  -0.946026 8.80826 -11.3954
L_Toe0  0.153259 0.0645707 -6.45413
R_Thigh  9.43892 7.49785 -27.5233
R_Calf  -0.570233 5.15761 16.3049
R_Foot  -0.082168 4.38188 17.2938
R_Toe0  -2.50525 0.423311 -5.1668
409
root  -5.11277 30.1358 39.7932 113.806 5.86261 89.5997
Spine  8.47507 14.5258 -4.41673
Spine1  6.38336 -13.499 2.11493
Neck  3.97569e-016 0 -2.38542e-015
Head  -19.5038 -2.14733 24.1873
R_Clavicle  0.181391 2.60082 1.04615
R_UpperArm  -2.89151 26.1154 -15.7488
R_Forearm  11.9144 -24.2847 20.419
R_Hand  1.19817 12.3095 -6.27685
L_Clavicle  -0.21901 9.46289 -0.795288
L_UpperArm  -13.7887 9.32824 23.7767
L_Forearm  -5.94795 -0.228206 -0.280547
L_Hand  -0.072172 1.83997 -1.01195
L_Thigh  -5.98986 -5.58023 26.2298
L_Calf  0.588092 0.223684 -2.05239
L_Foot  0.132167 9.23771 -7.62976
L_Toe0  0.505156 0.034446 -6.1361
R_Thigh  7.88079 10.5168 -31.0816
R_Calf  1.44205 6.89533 22.0758
R_Foot  -1.17204 2.753 20.7917
R_Toe0  -1.5662 -0.0201797 -9.8636
410
root  -5.06716 29.9319 40.6318 114.753 5.59669 88.7756
Spine  8.93937 16.0757 -5.83308
Spine1  6.6739 -13.7315 3.73123
Neck  3.97569e-016 0 -2.38542e-015
Head  -22.5285 -1.82651 21.1947
R_Clavicle  0.217412 1.64063 1.17647
R_UpperArm  11.2537 26.0623 -15.0685
R_Forearm  5.75314 -31.2934 20.8741
R_Hand  0.279965 12.7824 -11.9652
L_Clavicle  -0.325505 11.0853 0.360998
L_UpperArm  -12.7032 5.48749 18.2042
L_Forearm  -6.1844 -2.43665 -2.83418
L_Hand  -0.144093 1.38147 -2.28562
L_Thigh  -1.75349 -5.06243 26.8467
L_Calf  4.62909 -0.650215 4.32095
L_Foot  -0.471761 5.62822 -7.49807
L_Toe0  0.505156 0.034446 -6.1361
R_Thigh  6.82854 12.5746 -33.7519
R_Calf  5.26129 8.0669 26.1364
R_Foot  -1.42404 2.53145 22.0687
R_Toe0  -0.38456 -0.215608 -12.2978
411
root  -4.82295 29.7656 41.5137 116.084 4.95762 89.7308
Spine  8.95195 15.634 -6.82699
Spine1  6.68518 -14.0292 6.05681
Neck  3.97569e-016 0 -2.38542e-015
Head  -25.7123 -0.901942 18.2884
R_Clavicle  0.178157 -0.078735 0.901881
R_UpperArm  21.4816 24.0509 -11.4057
R_Forearm  8.20443 -31.6909 21.5937
R_Hand  -0.746516 12.8473 -17.9016
L_Clavicle  -0.343377 11.7251 0.383737
L_UpperArm  -12.5812 3.46227 12.2691
L_Forearm  -5.54878 -4.49709 -5.22906
L_Hand  -0.179608 1.10918 -3.0033
L_Thigh  1.35411 -6.31557 25.4049
L_Calf  8.3376 -1.28473 8.99157
L_Foot  -1.15351 1.19427 -6.90397
L_Toe0  0.505156 0.034446 -6.1361
R_Thigh  6.52956 12.3226 -36.1793
R_Calf  7.17285 8.60819 28.0512
R_Foot  -1.58826 2.28486 22.4286
R_Toe0  0.564655 -0.303851 -12.684
412
root  -4.40799 29.6852 42.3709 116.76 3.71246 92.3155
Spine  9.01466 13.6771 -6.1712
Spine1  6.72948 -15.706 7.37639
Neck  3.97569e-016 0 -2.38542e-015
Head  -28.6366 0.235223 16.4794
R_Clavicle  0.131065 -3.23562 0.42412
R_UpperArm  24.4267 19.4584 -5.43376
R_Forearm  20.1924 -25.5879 20.6336
R_Hand  -1.13341 10.9837 -20.1566
L_Clavicle  -0.30441 11.5248 -0.464962
L_UpperArm  -12.0117 2.32384 6.74567
L_Forearm  -5.08579 -7.07275 -8.25646
L_Hand  -0.185384 1.4639 -2.91631
L_Thigh  1.50991 -8.71888 22.4457
L_Calf  9.91072 -1.53336 10.8826
L_Foot  -0.757263 0.67307 -4.52404
L_Toe0  0.505156 0.034446 -6.1361
R_Thigh  7.02034 9.43385 -36.8702
R_Calf  5.17769 7.96713 25.7445
R_Foot  -0.839796 3.37884 20.5259
R_Toe0  -0.445256 -0.0753338 -7.13331
413
root  -3.91085 29.6557 43.1919 117.103 1.89229 95.7852
Spine  8.82469 10.3343 -4.42621
Spine1  6.57808 -17.5933 7.81664
Neck  3.97569e-016 0 -2.38542e-015
Head  -30.6537 0.440124 14.891
R_Clavicle  0.125203 -7.3651 -0.0715341
R_UpperArm  28.5501 13.8636 1.76127
R_Forearm  29.2445 -17.6696 15.5733
R_Hand  -0.866233 8.33709 -17.9686
L_Clavicle  -0.277459 11.3362 -0.96
L_UpperArm  -9.66381 0.824553 0.520483
L_Forearm  -4.7942 -10.0508 -11.8304
L_Hand  -0.153388 2.21371 -2.13693
L_Thigh  -0.249124 -12.2149 19.4885
L_Calf  9.84159 -1.50743 10.8256
L_Foot  0.491982 3.83788 -1.95721
L_Toe0  0.505156 0.034446 -6.1361
R_Thigh  8.93238 5.14644 -34.8808
R_Calf  2.84425 5.80337 18.3547
R_Foot  1.00116 6.70753 17.0525
R_Toe0  -1.97633 0.522494 -1.17014
